<mxfile host="Electron" agent="Mozilla/5.0 (Windows NT 10.0; Win64; x64) AppleWebKit/537.36 (KHTML, like Gecko) draw.io/27.0.9 Chrome/134.0.6998.205 Electron/35.4.0 Safari/537.36" version="27.0.9">
  <diagram name="페이지-1" id="qZ4MFzoHimZsA1MYrDOi">
    <mxGraphModel dx="1042" dy="722" grid="1" gridSize="10" guides="1" tooltips="1" connect="1" arrows="1" fold="1" page="1" pageScale="1" pageWidth="827" pageHeight="1169" math="0" shadow="0">
      <root>
        <mxCell id="0" />
        <mxCell id="1" parent="0" />
        <mxCell id="wbW9ZuM2k2KzdsEi39xn-1" value="투수가 1~10 중 4개의 숫자를 나열한다." style="ellipse;whiteSpace=wrap;html=1;aspect=fixed;" parent="1" vertex="1">
          <mxGeometry x="170" y="40" width="110" height="110" as="geometry" />
        </mxCell>
        <mxCell id="wbW9ZuM2k2KzdsEi39xn-5" value="타자는 투수가 제시한 숫자와 순서를 맞춘다.(10번 기회)" style="swimlane;fontStyle=0;childLayout=stackLayout;horizontal=1;startSize=30;horizontalStack=0;resizeParent=1;resizeParentMax=0;resizeLast=0;collapsible=1;marginBottom=0;whiteSpace=wrap;html=1;" parent="1" vertex="1">
          <mxGeometry x="70" y="190" width="310" height="150" as="geometry" />
        </mxCell>
        <mxCell id="wbW9ZuM2k2KzdsEi39xn-6" value="숫자와 순서가 같으면 스트라이크" style="text;strokeColor=none;fillColor=none;align=left;verticalAlign=middle;spacingLeft=4;spacingRight=4;overflow=hidden;points=[[0,0.5],[1,0.5]];portConstraint=eastwest;rotatable=0;whiteSpace=wrap;html=1;" parent="wbW9ZuM2k2KzdsEi39xn-5" vertex="1">
          <mxGeometry y="30" width="310" height="30" as="geometry" />
        </mxCell>
        <mxCell id="wbW9ZuM2k2KzdsEi39xn-7" value="숫자는 같지만 순서가 다르면 볼" style="text;strokeColor=none;fillColor=none;align=left;verticalAlign=middle;spacingLeft=4;spacingRight=4;overflow=hidden;points=[[0,0.5],[1,0.5]];portConstraint=eastwest;rotatable=0;whiteSpace=wrap;html=1;" parent="wbW9ZuM2k2KzdsEi39xn-5" vertex="1">
          <mxGeometry y="60" width="310" height="30" as="geometry" />
        </mxCell>
        <mxCell id="wbW9ZuM2k2KzdsEi39xn-8" value="&lt;div&gt;숫자와 순서가 모두 같으면 홈런&lt;br&gt;&lt;/div&gt;" style="text;strokeColor=none;fillColor=none;align=left;verticalAlign=middle;spacingLeft=4;spacingRight=4;overflow=hidden;points=[[0,0.5],[1,0.5]];portConstraint=eastwest;rotatable=0;whiteSpace=wrap;html=1;" parent="wbW9ZuM2k2KzdsEi39xn-5" vertex="1">
          <mxGeometry y="90" width="310" height="30" as="geometry" />
        </mxCell>
        <mxCell id="wbW9ZuM2k2KzdsEi39xn-13" value="숫자와 순서가 모두 다르면 아웃" style="text;strokeColor=none;fillColor=none;align=left;verticalAlign=middle;spacingLeft=4;spacingRight=4;overflow=hidden;points=[[0,0.5],[1,0.5]];portConstraint=eastwest;rotatable=0;whiteSpace=wrap;html=1;" parent="wbW9ZuM2k2KzdsEi39xn-5" vertex="1">
          <mxGeometry y="120" width="310" height="30" as="geometry" />
        </mxCell>
        <mxCell id="wbW9ZuM2k2KzdsEi39xn-14" value="숫자와 순서가 모두 같은지?" style="rhombus;whiteSpace=wrap;html=1;" parent="1" vertex="1">
          <mxGeometry x="137.5" y="370" width="175" height="180" as="geometry" />
        </mxCell>
        <mxCell id="wbW9ZuM2k2KzdsEi39xn-15" value="" style="endArrow=classic;html=1;rounded=0;exitX=0.5;exitY=1;exitDx=0;exitDy=0;" parent="1" source="wbW9ZuM2k2KzdsEi39xn-14" target="wbW9ZuM2k2KzdsEi39xn-16" edge="1">
          <mxGeometry width="50" height="50" relative="1" as="geometry">
            <mxPoint x="380" y="730" as="sourcePoint" />
            <mxPoint x="430" y="680" as="targetPoint" />
          </mxGeometry>
        </mxCell>
        <mxCell id="wbW9ZuM2k2KzdsEi39xn-16" value="홈런, 게임 종료, 타자 승" style="ellipse;whiteSpace=wrap;html=1;aspect=fixed;" parent="1" vertex="1">
          <mxGeometry x="185" y="610" width="80" height="80" as="geometry" />
        </mxCell>
        <mxCell id="wbW9ZuM2k2KzdsEi39xn-17" value="" style="endArrow=classic;html=1;rounded=0;exitX=1;exitY=0.5;exitDx=0;exitDy=0;" parent="1" source="wbW9ZuM2k2KzdsEi39xn-14" target="wbW9ZuM2k2KzdsEi39xn-18" edge="1">
          <mxGeometry width="50" height="50" relative="1" as="geometry">
            <mxPoint x="380" y="730" as="sourcePoint" />
            <mxPoint x="390" y="460" as="targetPoint" />
          </mxGeometry>
        </mxCell>
        <mxCell id="wbW9ZuM2k2KzdsEi39xn-18" value="숫자와 순서가 모두 다른지?" style="rhombus;whiteSpace=wrap;html=1;" parent="1" vertex="1">
          <mxGeometry x="390" y="380" width="180" height="160" as="geometry" />
        </mxCell>
        <mxCell id="wbW9ZuM2k2KzdsEi39xn-24" value="" style="endArrow=classic;html=1;rounded=0;exitX=0.5;exitY=1;exitDx=0;exitDy=0;" parent="1" source="wbW9ZuM2k2KzdsEi39xn-18" target="wbW9ZuM2k2KzdsEi39xn-26" edge="1">
          <mxGeometry relative="1" as="geometry">
            <mxPoint x="360" y="580" as="sourcePoint" />
            <mxPoint x="480" y="610" as="targetPoint" />
          </mxGeometry>
        </mxCell>
        <mxCell id="wbW9ZuM2k2KzdsEi39xn-25" value="Label" style="edgeLabel;resizable=0;html=1;;align=center;verticalAlign=middle;" parent="wbW9ZuM2k2KzdsEi39xn-24" connectable="0" vertex="1">
          <mxGeometry relative="1" as="geometry" />
        </mxCell>
        <mxCell id="wbW9ZuM2k2KzdsEi39xn-26" value="아웃" style="ellipse;whiteSpace=wrap;html=1;aspect=fixed;" parent="1" vertex="1">
          <mxGeometry x="440" y="610" width="80" height="80" as="geometry" />
        </mxCell>
        <mxCell id="wbW9ZuM2k2KzdsEi39xn-27" value="" style="endArrow=classic;html=1;rounded=0;exitX=0.5;exitY=1;exitDx=0;exitDy=0;entryX=0.5;entryY=0;entryDx=0;entryDy=0;" parent="1" source="wbW9ZuM2k2KzdsEi39xn-26" target="wbW9ZuM2k2KzdsEi39xn-28" edge="1">
          <mxGeometry width="50" height="50" relative="1" as="geometry">
            <mxPoint x="520" y="720" as="sourcePoint" />
            <mxPoint x="480" y="750" as="targetPoint" />
          </mxGeometry>
        </mxCell>
        <mxCell id="wbW9ZuM2k2KzdsEi39xn-28" value="횟수가 10번이 됐는지?" style="rhombus;whiteSpace=wrap;html=1;" parent="1" vertex="1">
          <mxGeometry x="390" y="750" width="180" height="160" as="geometry" />
        </mxCell>
        <mxCell id="wbW9ZuM2k2KzdsEi39xn-29" value="" style="endArrow=classic;html=1;rounded=0;exitX=0.5;exitY=1;exitDx=0;exitDy=0;" parent="1" source="wbW9ZuM2k2KzdsEi39xn-28" target="wbW9ZuM2k2KzdsEi39xn-32" edge="1">
          <mxGeometry relative="1" as="geometry">
            <mxPoint x="360" y="870" as="sourcePoint" />
            <mxPoint x="480" y="970" as="targetPoint" />
          </mxGeometry>
        </mxCell>
        <mxCell id="wbW9ZuM2k2KzdsEi39xn-30" value="Label" style="edgeLabel;resizable=0;html=1;;align=center;verticalAlign=middle;" parent="wbW9ZuM2k2KzdsEi39xn-29" connectable="0" vertex="1">
          <mxGeometry relative="1" as="geometry" />
        </mxCell>
        <mxCell id="wbW9ZuM2k2KzdsEi39xn-32" value="게임 종료, 투수 승" style="rounded=0;whiteSpace=wrap;html=1;" parent="1" vertex="1">
          <mxGeometry x="420" y="940" width="120" height="60" as="geometry" />
        </mxCell>
        <mxCell id="wbW9ZuM2k2KzdsEi39xn-33" value="" style="endArrow=classic;html=1;rounded=0;exitX=0.991;exitY=0.463;exitDx=0;exitDy=0;exitPerimeter=0;entryX=1;entryY=0.5;entryDx=0;entryDy=0;" parent="1" source="wbW9ZuM2k2KzdsEi39xn-28" target="wbW9ZuM2k2KzdsEi39xn-7" edge="1">
          <mxGeometry relative="1" as="geometry">
            <mxPoint x="360" y="520" as="sourcePoint" />
            <mxPoint x="460" y="520" as="targetPoint" />
            <Array as="points">
              <mxPoint x="720" y="824" />
              <mxPoint x="720" y="265" />
            </Array>
          </mxGeometry>
        </mxCell>
        <mxCell id="wbW9ZuM2k2KzdsEi39xn-34" value="아니오" style="edgeLabel;resizable=0;html=1;;align=center;verticalAlign=middle;" parent="wbW9ZuM2k2KzdsEi39xn-33" connectable="0" vertex="1">
          <mxGeometry relative="1" as="geometry" />
        </mxCell>
        <mxCell id="wbW9ZuM2k2KzdsEi39xn-35" value="" style="ellipse;whiteSpace=wrap;html=1;aspect=fixed;" parent="1" vertex="1">
          <mxGeometry x="600" y="410" width="80" height="80" as="geometry" />
        </mxCell>
        <mxCell id="wbW9ZuM2k2KzdsEi39xn-36" value="" style="endArrow=none;html=1;rounded=0;exitX=0.5;exitY=0;exitDx=0;exitDy=0;" parent="1" source="wbW9ZuM2k2KzdsEi39xn-35" edge="1">
          <mxGeometry width="50" height="50" relative="1" as="geometry">
            <mxPoint x="380" y="450" as="sourcePoint" />
            <mxPoint x="640" y="270" as="targetPoint" />
          </mxGeometry>
        </mxCell>
        <mxCell id="sPo7OEmTYNOl45ZI-Nw4-1" value="1번" style="rounded=1;whiteSpace=wrap;html=1;" vertex="1" parent="1">
          <mxGeometry x="17.5" y="10" width="120" height="60" as="geometry" />
        </mxCell>
        <mxCell id="sPo7OEmTYNOl45ZI-Nw4-2" value="2번" style="rounded=1;whiteSpace=wrap;html=1;" vertex="1" parent="1">
          <mxGeometry x="880" y="10" width="120" height="60" as="geometry" />
        </mxCell>
        <mxCell id="sPo7OEmTYNOl45ZI-Nw4-3" value="" style="ellipse;html=1;shape=startState;fillColor=#000000;strokeColor=#ff0000;" vertex="1" parent="1">
          <mxGeometry x="890" y="100" width="30" height="30" as="geometry" />
        </mxCell>
        <mxCell id="sPo7OEmTYNOl45ZI-Nw4-4" value="" style="edgeStyle=orthogonalEdgeStyle;html=1;verticalAlign=bottom;endArrow=open;endSize=8;strokeColor=#ff0000;rounded=0;" edge="1" source="sPo7OEmTYNOl45ZI-Nw4-3" parent="1">
          <mxGeometry relative="1" as="geometry">
            <mxPoint x="905" y="190" as="targetPoint" />
          </mxGeometry>
        </mxCell>
        <mxCell id="sPo7OEmTYNOl45ZI-Nw4-5" value="숫자 4개를 뽑는다." style="ellipse;whiteSpace=wrap;html=1;" vertex="1" parent="1">
          <mxGeometry x="835" y="190" width="140" height="70" as="geometry" />
        </mxCell>
        <mxCell id="sPo7OEmTYNOl45ZI-Nw4-6" value="" style="endArrow=open;endFill=1;endSize=12;html=1;rounded=0;exitX=0.5;exitY=1;exitDx=0;exitDy=0;" edge="1" parent="1" source="sPo7OEmTYNOl45ZI-Nw4-5">
          <mxGeometry width="160" relative="1" as="geometry">
            <mxPoint x="1020" y="310" as="sourcePoint" />
            <mxPoint x="905" y="350" as="targetPoint" />
          </mxGeometry>
        </mxCell>
        <mxCell id="sPo7OEmTYNOl45ZI-Nw4-7" value="대기" style="html=1;whiteSpace=wrap;" vertex="1" parent="1">
          <mxGeometry x="850" y="350" width="110" height="50" as="geometry" />
        </mxCell>
        <mxCell id="sPo7OEmTYNOl45ZI-Nw4-8" value="답을 제출한다." style="html=1;whiteSpace=wrap;" vertex="1" parent="1">
          <mxGeometry x="1070" y="90" width="110" height="50" as="geometry" />
        </mxCell>
        <mxCell id="sPo7OEmTYNOl45ZI-Nw4-9" value="" style="endArrow=open;endFill=1;endSize=12;html=1;rounded=0;exitX=0.5;exitY=1;exitDx=0;exitDy=0;entryX=0.5;entryY=0;entryDx=0;entryDy=0;" edge="1" parent="1" source="sPo7OEmTYNOl45ZI-Nw4-8" target="sPo7OEmTYNOl45ZI-Nw4-10">
          <mxGeometry width="160" relative="1" as="geometry">
            <mxPoint x="1100" y="170" as="sourcePoint" />
            <mxPoint x="1125" y="200" as="targetPoint" />
          </mxGeometry>
        </mxCell>
        <mxCell id="sPo7OEmTYNOl45ZI-Nw4-10" value="답이 형식에 맞는지 체크한다." style="rhombus;whiteSpace=wrap;html=1;" vertex="1" parent="1">
          <mxGeometry x="1007.5" y="210" width="235" height="80" as="geometry" />
        </mxCell>
        <mxCell id="sPo7OEmTYNOl45ZI-Nw4-11" value="아니오" style="html=1;verticalAlign=bottom;endArrow=block;curved=0;rounded=0;" edge="1" parent="1">
          <mxGeometry width="80" relative="1" as="geometry">
            <mxPoint x="1242.5" y="249.5" as="sourcePoint" />
            <mxPoint x="1322.5" y="249.5" as="targetPoint" />
          </mxGeometry>
        </mxCell>
        <mxCell id="sPo7OEmTYNOl45ZI-Nw4-12" value="예" style="html=1;verticalAlign=bottom;endArrow=block;curved=0;rounded=0;exitX=0.5;exitY=1;exitDx=0;exitDy=0;" edge="1" parent="1" source="sPo7OEmTYNOl45ZI-Nw4-10">
          <mxGeometry width="80" relative="1" as="geometry">
            <mxPoint x="1140" y="170" as="sourcePoint" />
            <mxPoint x="1125" y="350" as="targetPoint" />
          </mxGeometry>
        </mxCell>
        <mxCell id="sPo7OEmTYNOl45ZI-Nw4-13" value="에러를 표시한다." style="ellipse;whiteSpace=wrap;html=1;" vertex="1" parent="1">
          <mxGeometry x="1320" y="215" width="140" height="70" as="geometry" />
        </mxCell>
        <mxCell id="sPo7OEmTYNOl45ZI-Nw4-14" value="" style="endArrow=open;endFill=1;endSize=12;html=1;rounded=0;exitX=1;exitY=0.5;exitDx=0;exitDy=0;" edge="1" parent="1" source="sPo7OEmTYNOl45ZI-Nw4-13">
          <mxGeometry width="160" relative="1" as="geometry">
            <mxPoint x="1100" y="170" as="sourcePoint" />
            <mxPoint x="1540" y="250" as="targetPoint" />
          </mxGeometry>
        </mxCell>
        <mxCell id="sPo7OEmTYNOl45ZI-Nw4-15" value="대기" style="html=1;whiteSpace=wrap;" vertex="1" parent="1">
          <mxGeometry x="1540" y="225" width="110" height="50" as="geometry" />
        </mxCell>
        <mxCell id="sPo7OEmTYNOl45ZI-Nw4-16" value="홈런인지 체크한다." style="rhombus;whiteSpace=wrap;html=1;" vertex="1" parent="1">
          <mxGeometry x="1007.5" y="350" width="235" height="80" as="geometry" />
        </mxCell>
        <mxCell id="sPo7OEmTYNOl45ZI-Nw4-17" value="예" style="html=1;verticalAlign=bottom;endArrow=block;curved=0;rounded=0;" edge="1" parent="1">
          <mxGeometry width="80" relative="1" as="geometry">
            <mxPoint x="1242.5" y="389.5" as="sourcePoint" />
            <mxPoint x="1322.5" y="389.5" as="targetPoint" />
          </mxGeometry>
        </mxCell>
        <mxCell id="sPo7OEmTYNOl45ZI-Nw4-18" value="홈런을 표시한다." style="ellipse;whiteSpace=wrap;html=1;" vertex="1" parent="1">
          <mxGeometry x="1320" y="355" width="140" height="70" as="geometry" />
        </mxCell>
        <mxCell id="sPo7OEmTYNOl45ZI-Nw4-19" value="" style="endArrow=open;endFill=1;endSize=12;html=1;rounded=0;exitX=1;exitY=0.5;exitDx=0;exitDy=0;" edge="1" parent="1">
          <mxGeometry width="160" relative="1" as="geometry">
            <mxPoint x="1460" y="389.5" as="sourcePoint" />
            <mxPoint x="1540" y="389.5" as="targetPoint" />
          </mxGeometry>
        </mxCell>
        <mxCell id="sPo7OEmTYNOl45ZI-Nw4-21" value="" style="ellipse;html=1;shape=endState;fillColor=#000000;strokeColor=#ff0000;" vertex="1" parent="1">
          <mxGeometry x="1540" y="375" width="30" height="30" as="geometry" />
        </mxCell>
        <mxCell id="sPo7OEmTYNOl45ZI-Nw4-22" value="아니오" style="html=1;verticalAlign=bottom;endArrow=block;curved=0;rounded=0;exitX=0.5;exitY=1;exitDx=0;exitDy=0;" edge="1" parent="1">
          <mxGeometry width="80" relative="1" as="geometry">
            <mxPoint x="1124.5" y="430" as="sourcePoint" />
            <mxPoint x="1124.5" y="490" as="targetPoint" />
          </mxGeometry>
        </mxCell>
        <mxCell id="sPo7OEmTYNOl45ZI-Nw4-23" value="10번째 시도인지 체크한다." style="rhombus;whiteSpace=wrap;html=1;" vertex="1" parent="1">
          <mxGeometry x="1007.5" y="490" width="235" height="80" as="geometry" />
        </mxCell>
        <mxCell id="sPo7OEmTYNOl45ZI-Nw4-24" value="예" style="html=1;verticalAlign=bottom;endArrow=block;curved=0;rounded=0;" edge="1" parent="1">
          <mxGeometry width="80" relative="1" as="geometry">
            <mxPoint x="1241" y="529.5" as="sourcePoint" />
            <mxPoint x="1321" y="529.5" as="targetPoint" />
          </mxGeometry>
        </mxCell>
        <mxCell id="sPo7OEmTYNOl45ZI-Nw4-25" value="졌다고 표시한다." style="ellipse;whiteSpace=wrap;html=1;" vertex="1" parent="1">
          <mxGeometry x="1320" y="495" width="140" height="70" as="geometry" />
        </mxCell>
        <mxCell id="sPo7OEmTYNOl45ZI-Nw4-26" value="" style="endArrow=open;endFill=1;endSize=12;html=1;rounded=0;exitX=1;exitY=0.5;exitDx=0;exitDy=0;" edge="1" parent="1">
          <mxGeometry width="160" relative="1" as="geometry">
            <mxPoint x="1460" y="529.5" as="sourcePoint" />
            <mxPoint x="1540" y="529.5" as="targetPoint" />
          </mxGeometry>
        </mxCell>
        <mxCell id="sPo7OEmTYNOl45ZI-Nw4-27" value="" style="ellipse;html=1;shape=endState;fillColor=#000000;strokeColor=#ff0000;" vertex="1" parent="1">
          <mxGeometry x="1540" y="515" width="30" height="30" as="geometry" />
        </mxCell>
        <mxCell id="sPo7OEmTYNOl45ZI-Nw4-28" value="아니오" style="html=1;verticalAlign=bottom;endArrow=block;curved=0;rounded=0;exitX=0.5;exitY=1;exitDx=0;exitDy=0;" edge="1" parent="1">
          <mxGeometry width="80" relative="1" as="geometry">
            <mxPoint x="1124.5" y="570" as="sourcePoint" />
            <mxPoint x="1124.5" y="630" as="targetPoint" />
          </mxGeometry>
        </mxCell>
        <mxCell id="sPo7OEmTYNOl45ZI-Nw4-29" value="몇번째 시도인지 표시한다." style="ellipse;whiteSpace=wrap;html=1;" vertex="1" parent="1">
          <mxGeometry x="1055" y="630" width="140" height="70" as="geometry" />
        </mxCell>
        <mxCell id="sPo7OEmTYNOl45ZI-Nw4-30" value="" style="endArrow=open;endFill=1;endSize=12;html=1;rounded=0;exitX=1;exitY=0.5;exitDx=0;exitDy=0;" edge="1" parent="1" source="sPo7OEmTYNOl45ZI-Nw4-29">
          <mxGeometry width="160" relative="1" as="geometry">
            <mxPoint x="1100" y="570" as="sourcePoint" />
            <mxPoint x="1330" y="665" as="targetPoint" />
          </mxGeometry>
        </mxCell>
        <mxCell id="sPo7OEmTYNOl45ZI-Nw4-31" value="시도 카운트를 1 늘린다." style="ellipse;whiteSpace=wrap;html=1;" vertex="1" parent="1">
          <mxGeometry x="1330" y="630" width="140" height="70" as="geometry" />
        </mxCell>
        <mxCell id="sPo7OEmTYNOl45ZI-Nw4-32" value="" style="endArrow=open;endFill=1;endSize=12;html=1;rounded=0;exitX=1;exitY=0.5;exitDx=0;exitDy=0;" edge="1" parent="1">
          <mxGeometry width="160" relative="1" as="geometry">
            <mxPoint x="1470" y="664.5" as="sourcePoint" />
            <mxPoint x="1550" y="664.5" as="targetPoint" />
          </mxGeometry>
        </mxCell>
        <mxCell id="sPo7OEmTYNOl45ZI-Nw4-33" value="대기" style="html=1;whiteSpace=wrap;" vertex="1" parent="1">
          <mxGeometry x="1550" y="640" width="110" height="50" as="geometry" />
        </mxCell>
      </root>
    </mxGraphModel>
  </diagram>
</mxfile>
